<?xml version="1.0" encoding="UTF-8" standalone="no"?>
<svg
   xmlns:dc="http://purl.org/dc/elements/1.1/"
   xmlns:cc="http://creativecommons.org/ns#"
   xmlns:rdf="http://www.w3.org/1999/02/22-rdf-syntax-ns#"
   xmlns:svg="http://www.w3.org/2000/svg"
   xmlns="http://www.w3.org/2000/svg"
   xmlns:sodipodi="http://sodipodi.sourceforge.net/DTD/sodipodi-0.dtd"
   xmlns:inkscape="http://www.inkscape.org/namespaces/inkscape"
   height="133"
   viewBox="3890 1350 1330 1330"
   width="133"
   version="1.1"
   id="svg10"
   sodipodi:docname="bB.svg"
   inkscape:version="0.92.4 (5da689c313, 2019-01-14)">
  <metadata
     id="metadata16">
    <rdf:RDF>
      <cc:Work
         rdf:about="">
        <dc:format>image/svg+xml</dc:format>
        <dc:type
           rdf:resource="http://purl.org/dc/dcmitype/StillImage" />
      </cc:Work>
    </rdf:RDF>
  </metadata>
  <defs
     id="defs14" />
  <sodipodi:namedview
     pagecolor="#ffffff"
     bordercolor="#666666"
     borderopacity="1"
     objecttolerance="10"
     gridtolerance="10"
     guidetolerance="10"
     inkscape:pageopacity="0"
     inkscape:pageshadow="2"
     inkscape:window-width="1920"
     inkscape:window-height="1001"
     id="namedview12"
     showgrid="false"
     inkscape:zoom="1.7744361"
     inkscape:cx="-2.2542373"
     inkscape:cy="66.5"
     inkscape:window-x="-9"
     inkscape:window-y="-9"
     inkscape:window-maximized="1"
     inkscape:current-layer="svg10" />
  <path
     d="m 4180,2500 v -100 h 186 l 38,-162 c 21,-90 40,-168 43,-174 2,-6 -30,-54 -72,-107 -41,-54 -75,-102 -75,-108 0,-6 21,-38 47,-71 l 47,-61 26,31 27,32 32,-45 32,-45 -20,-29 c -12,-16 -21,-32 -21,-36 0,-10 92,-125 99,-125 3,1 37,42 76,93 38,50 99,128 133,174 l 64,82 -78,101 -78,101 32,137 c 18,75 37,154 43,175 l 10,37 h 179 v 200 h -770 z"
     id="path2"
     inkscape:connector-curvature="0"
     style="fill:#565252" />
  <path
     d="m 4950,2500 v -100 h -179 l -10,-37 c -6,-21 -25,-100 -43,-175 l -32,-137 77,-100 c 42,-55 77,-101 77,-103 0,-2 -54,-1 -119,2 l -119,5 -72,93 c -39,50 -74,92 -78,92 -4,0 -8,11 -8,25 -1,14 2,25 6,25 5,0 38,18 74,41 l 64,40 7,97 c 9,134 8,132 61,132 h 44 v 200 h 250 z m -422,-699 c 18,-22 32,-43 32,-48 0,-4 -10,-21 -23,-37 l -23,-29 -36,49 -36,48 21,28 c 11,15 24,28 27,28 4,0 21,-18 38,-39 z"
     id="path4"
     inkscape:connector-curvature="0"
     style="fill:#444242" />
  <path
     d="m 4700,2500 v -100 h -44 c -53,0 -52,2 -61,-132 l -7,-97 -64,-40 c -36,-23 -69,-41 -73,-41 -7,0 -20,46 -63,223 l -21,87 h -187 v 200 h 520 z m -168,-555 73,-95 h 112 c 62,0 113,-3 112,-7 0,-9 -31,-50 -157,-208 -50,-64 -92,-121 -92,-126 0,-20 -18,-5 -63,56 l -48,64 45,58 c 25,32 46,62 46,66 0,11 -61,87 -70,87 -4,0 -26,-27 -50,-60 -24,-32 -46,-57 -51,-55 -4,3 -26,33 -49,66 l -41,61 47,61 c 27,34 60,77 74,94 14,18 28,33 32,33 4,0 40,-43 80,-95 z"
     id="path6"
     inkscape:connector-curvature="0"
     style="fill:#565252" />
  <path
     d="m 4180,2500 v -100 h 186 l 38,-162 c 21,-90 40,-168 43,-174 2,-6 -30,-54 -72,-107 -41,-54 -75,-102 -75,-108 0,-6 21,-38 47,-71 l 47,-61 26,31 27,32 32,-45 32,-45 -20,-29 c -12,-16 -21,-32 -21,-36 0,-10 92,-125 99,-125 3,1 37,42 76,93 38,50 99,128 133,174 l 64,82 -78,101 -78,101 32,137 c 18,75 37,154 43,175 l 10,37 h 179 v 200 h -770 z"
     id="path8"
     inkscape:connector-curvature="0"
     style="fill:none;stroke:#000000;stroke-width:24" />
</svg>
