<?xml version="1.0" encoding="UTF-8" standalone="no"?>
<svg
   xmlns:dc="http://purl.org/dc/elements/1.1/"
   xmlns:cc="http://creativecommons.org/ns#"
   xmlns:rdf="http://www.w3.org/1999/02/22-rdf-syntax-ns#"
   xmlns:svg="http://www.w3.org/2000/svg"
   xmlns="http://www.w3.org/2000/svg"
   xmlns:sodipodi="http://sodipodi.sourceforge.net/DTD/sodipodi-0.dtd"
   xmlns:inkscape="http://www.inkscape.org/namespaces/inkscape"
   height="133"
   viewBox="6150 1350 1333 1333"
   width="133"
   version="1.1"
   id="svg10"
   sodipodi:docname="bK.svg"
   inkscape:version="0.92.4 (5da689c313, 2019-01-14)">
  <metadata
     id="metadata16">
    <rdf:RDF>
      <cc:Work
         rdf:about="">
        <dc:format>image/svg+xml</dc:format>
        <dc:type
           rdf:resource="http://purl.org/dc/dcmitype/StillImage" />
      </cc:Work>
    </rdf:RDF>
  </metadata>
  <defs
     id="defs14" />
  <sodipodi:namedview
     pagecolor="#ffffff"
     bordercolor="#666666"
     borderopacity="1"
     objecttolerance="10"
     gridtolerance="10"
     guidetolerance="10"
     inkscape:pageopacity="0"
     inkscape:pageshadow="2"
     inkscape:window-width="755"
     inkscape:window-height="480"
     id="namedview12"
     showgrid="false"
     inkscape:zoom="1.7744361"
     inkscape:cx="89.042373"
     inkscape:cy="66.5"
     inkscape:window-x="0"
     inkscape:window-y="0"
     inkscape:window-maximized="0"
     inkscape:current-layer="svg10" />
  <path
     d="m 6430,2500 v -100 h 237 l 17,-57 16,-58 -72,-153 -72,-154 24,-19 c 58,-44 130,-63 240,-64 98,0 109,2 170,32 36,17 71,36 78,41 11,7 -1,41 -59,161 l -73,152 15,57 15,57 117,3 117,3 v 199 h -770 z m 333,-705 c 4,-25 9,-56 13,-70 6,-24 5,-25 -40,-19 l -46,7 v -105 l 46,7 c 41,6 45,5 40,-12 -3,-10 -8,-30 -12,-45 l -6,-28 h 115 l -6,45 -7,45 40,-6 40,-7 v 106 l -41,-7 -42,-7 6,38 c 4,21 9,53 13,71 l 6,32 h -125 z"
     id="path2"
     inkscape:connector-curvature="0"
     style="fill:#565252" />
  <path
     d="m 7200,2500 v -99 l -117,-3 -117,-3 -15,-57 -15,-57 72,-150 c 40,-83 72,-151 72,-153 0,-2 -45,-2 -99,0 -65,2 -101,7 -104,15 -2,7 -17,74 -32,150 l -28,137 h -58 c -43,0 -58,4 -63,16 -8,21 -8,24 4,24 5,0 39,18 75,40 55,34 74,40 120,40 h 55 v 200 h 250 z m -324,-692 c -4,-18 -9,-50 -13,-71 l -6,-38 42,7 41,7 v -106 l -40,7 -40,6 7,-45 c 6,-44 5,-45 -23,-45 h -29 v 310 h 34 c 32,0 33,-1 27,-32 z m -179,-148 c 0,-30 -2,-43 -4,-27 -2,15 -2,39 0,55 2,15 4,2 4,-28 z"
     id="path4"
     inkscape:connector-curvature="0"
     style="fill:#444242" />
  <path
     d="m 6950,2500 v -100 h -55 c -46,0 -65,-6 -120,-40 -36,-22 -69,-40 -74,-40 -4,0 -14,18 -21,40 l -13,40 h -237 v 200 h 520 z m -105,-357 c 15,-76 30,-144 33,-150 3,-9 33,-13 101,-13 89,-1 94,-2 76,-16 -22,-17 -81,-44 -131,-61 -46,-15 -191,-9 -249,11 -47,16 -115,55 -115,66 0,3 31,70 68,150 l 67,145 61,3 61,3 z m -29,-316 c 2,-7 3,-76 2,-152 l -3,-140 -29,-3 c -26,-3 -28,-1 -22,22 3,14 9,37 12,51 5,19 3,24 -7,21 -8,-2 -26,-7 -42,-10 -27,-6 -27,-6 -27,44 v 50 l 42,-6 41,-7 -6,39 c -4,21 -9,54 -13,72 -6,30 -5,32 20,32 15,0 29,-6 32,-13 z"
     id="path6"
     inkscape:connector-curvature="0"
     style="fill:#565252" />
  <path
     d="m 6430,2500 v -100 h 237 l 17,-57 16,-58 -72,-153 -72,-154 24,-19 c 58,-44 130,-63 240,-64 98,0 109,2 170,32 36,17 71,36 78,41 11,7 -1,41 -59,161 l -73,152 15,57 15,57 117,3 117,3 v 199 h -770 z m 333,-705 c 4,-25 9,-56 13,-70 6,-24 5,-25 -40,-19 l -46,7 v -105 l 46,7 c 41,6 45,5 40,-12 -3,-10 -8,-30 -12,-45 l -6,-28 h 115 l -6,45 -7,45 40,-6 40,-7 v 106 l -41,-7 -42,-7 6,38 c 4,21 9,53 13,71 l 6,32 h -125 z"
     id="path8"
     inkscape:connector-curvature="0"
     style="fill:none;stroke:#000000;stroke-width:24" />
</svg>
