<?xml version="1.0" encoding="UTF-8" standalone="no"?>
<svg
   xmlns:dc="http://purl.org/dc/elements/1.1/"
   xmlns:cc="http://creativecommons.org/ns#"
   xmlns:rdf="http://www.w3.org/1999/02/22-rdf-syntax-ns#"
   xmlns:svg="http://www.w3.org/2000/svg"
   xmlns="http://www.w3.org/2000/svg"
   xmlns:sodipodi="http://sodipodi.sourceforge.net/DTD/sodipodi-0.dtd"
   xmlns:inkscape="http://www.inkscape.org/namespaces/inkscape"
   height="133"
   viewBox="1670 1350 1333 1333"
   width="133"
   version="1.1"
   id="svg14"
   sodipodi:docname="bR.svg"
   inkscape:version="0.92.4 (5da689c313, 2019-01-14)">
  <metadata
     id="metadata20">
    <rdf:RDF>
      <cc:Work
         rdf:about="">
        <dc:format>image/svg+xml</dc:format>
        <dc:type
           rdf:resource="http://purl.org/dc/dcmitype/StillImage" />
      </cc:Work>
    </rdf:RDF>
  </metadata>
  <defs
     id="defs18" />
  <sodipodi:namedview
     pagecolor="#ffffff"
     bordercolor="#666666"
     borderopacity="1"
     objecttolerance="10"
     gridtolerance="10"
     guidetolerance="10"
     inkscape:pageopacity="0"
     inkscape:pageshadow="2"
     inkscape:window-width="640"
     inkscape:window-height="480"
     id="namedview16"
     showgrid="false"
     inkscape:zoom="1.7744361"
     inkscape:cx="56.637712"
     inkscape:cy="65.20015"
     inkscape:window-x="0"
     inkscape:window-y="0"
     inkscape:window-maximized="0"
     inkscape:current-layer="svg14" />
  <path
     d="m 1940,2500 v -99 l 62,-3 63,-3 22,-210 c 30,-287 33,-256 -37,-299 l -60,-38 2,-161 3,-162 57,-3 58,-3 v 101 h 109 l 3,-47 3,-48 h 190 l 3,48 3,47 h 109 v -101 l 57,3 58,3 3,163 2,162 -46,28 c -25,15 -52,32 -60,37 -12,9 -11,39 6,215 11,113 23,220 26,238 l 5,32 h 129 v 200 h -770 z"
     id="path2"
     inkscape:connector-curvature="0"
     style="fill:#565252" />
  <g
     id="g8"
     transform="matrix(-1,0,0,1,4650,0)"
     style="fill:#444242">
    <path
       d="m 1940,2500 v -100 h 129 l 5,-32 c 3,-18 15,-125 26,-238 17,-176 18,-206 6,-215 -8,-5 -35,-22 -60,-37 l -46,-28 2,-162 3,-163 58,-3 57,-3 v 51 c 0,49 1,50 30,50 h 30 v 230 h 238 l 237,1 -54,34 c -30,19 -57,38 -60,42 -3,5 -12,9 -18,10 -7,2 -65,35 -128,74 l -115,71 -1,51 c -1,29 -4,99 -8,157 l -6,105 -37,3 -38,3 v 199 h -250 z"
       id="path4"
       inkscape:connector-curvature="0" />
    <path
       d="m 2232,1573 3,-48 50,-3 50,-3 -3,51 -4,50 h -99 z"
       id="path6"
       inkscape:connector-curvature="0" />
  </g>
  <path
     d="m 2460,2501 v -100 l -38,-3 -37,-3 -6,-105 c -4,-58 -7,-128 -8,-157 l -1,-51 -122,-76 c -68,-41 -126,-72 -130,-68 -3,4 -9,39 -13,77 -4,39 -8,86 -10,105 -7,68 -14,146 -19,203 -3,32 -8,63 -11,68 -4,5 -33,9 -66,9 h -59 v 200 h 520 z m 10,-766 v -115 h -149 l -3,-47 -3,-48 h -90 l -3,48 -3,47 h -109 v -101 l -58,3 -57,3 -3,163 -2,162 h 480 z"
     id="path10"
     inkscape:connector-curvature="0"
     style="fill:#565252" />
  <path
     d="m 1940,2500 v -99 l 62,-3 63,-3 22,-210 c 30,-287 33,-256 -37,-299 l -60,-38 2,-161 3,-162 57,-3 58,-3 v 101 h 109 l 3,-47 3,-48 h 190 l 3,48 3,47 h 109 v -101 l 57,3 58,3 3,163 2,162 -46,28 c -25,15 -52,32 -60,37 -12,9 -11,39 6,215 11,113 23,220 26,238 l 5,32 h 129 v 200 h -770 z"
     id="path12"
     inkscape:connector-curvature="0"
     style="fill:none;stroke:#000000;stroke-width:24" />
</svg>
