<?xml version="1.0" encoding="UTF-8" standalone="no"?>
<svg
   xmlns:dc="http://purl.org/dc/elements/1.1/"
   xmlns:cc="http://creativecommons.org/ns#"
   xmlns:rdf="http://www.w3.org/1999/02/22-rdf-syntax-ns#"
   xmlns:svg="http://www.w3.org/2000/svg"
   xmlns="http://www.w3.org/2000/svg"
   xmlns:sodipodi="http://sodipodi.sourceforge.net/DTD/sodipodi-0.dtd"
   xmlns:inkscape="http://www.inkscape.org/namespaces/inkscape"
   height="133"
   viewBox="535 1350 1333 1333"
   width="133"
   version="1.1"
   id="svg10"
   sodipodi:docname="wP.svg"
   inkscape:version="0.92.4 (5da689c313, 2019-01-14)">
  <metadata
     id="metadata16">
    <rdf:RDF>
      <cc:Work
         rdf:about="">
        <dc:format>image/svg+xml</dc:format>
        <dc:type
           rdf:resource="http://purl.org/dc/dcmitype/StillImage" />
      </cc:Work>
    </rdf:RDF>
  </metadata>
  <defs
     id="defs14" />
  <sodipodi:namedview
     pagecolor="#ffffff"
     bordercolor="#666666"
     borderopacity="1"
     objecttolerance="10"
     gridtolerance="10"
     guidetolerance="10"
     inkscape:pageopacity="0"
     inkscape:pageshadow="2"
     inkscape:window-width="640"
     inkscape:window-height="480"
     id="namedview12"
     showgrid="false"
     inkscape:zoom="1.7744361"
     inkscape:cx="56.637712"
     inkscape:cy="66.5"
     inkscape:window-x="0"
     inkscape:window-y="0"
     inkscape:window-maximized="0"
     inkscape:current-layer="svg10" />
  <path
     d="m 820,2500 v -99 l 87,-3 87,-3 56,-182 57,-182 -30,-28 c -62,-58 -82,-147 -51,-221 52,-126 211,-166 311,-79 91,80 96,207 12,290 l -39,39 58,182 58,181 82,3 82,3 v 199 H 820 Z"
     id="path2"
     inkscape:connector-curvature="0"
     style="fill:#f8f8f8" />
  <path
     d="m 1590,2500 v -99 l -82,-3 -82,-3 -58,-181 -58,-182 39,-39 c 38,-38 61,-91 61,-144 0,-30 -19,-89 -29,-89 -3,0 -65,59 -136,130 -84,84 -135,128 -145,125 -17,-6 -22,-10 77,68 l 60,48 12,117 c 16,154 15,152 57,152 h 34 v 200 h 250 z"
     id="path4"
     inkscape:connector-curvature="0"
     style="fill:#d3d3d3" />
  <path
     d="m 1340,2500 v -100 h -34 c -42,0 -41,2 -57,-152 l -12,-117 -64,-51 -63,-51 -10,26 c -6,15 -10,31 -10,38 0,11 -24,87 -75,237 l -23,65 -86,3 -86,3 v 199 h 520 z m -91,-614 133,-134 -41,-40 c -55,-53 -117,-68 -190,-47 -113,34 -170,176 -115,287 13,25 59,68 73,68 3,0 66,-60 140,-134 z"
     id="path6"
     inkscape:connector-curvature="0"
     style="fill:#f8f8f8" />
  <path
     d="m 820,2500 v -99 l 87,-3 87,-3 56,-182 57,-182 -30,-28 c -62,-58 -82,-147 -51,-221 52,-126 211,-166 311,-79 91,80 96,207 12,290 l -39,39 58,182 58,181 82,3 82,3 v 199 H 820 Z"
     id="path8"
     inkscape:connector-curvature="0"
     style="fill:none;stroke:#000000;stroke-width:24" />
</svg>
